<?xml version="1.0" standalone="no"?>
<!DOCTYPE svg PUBLIC "-//W3C//DTD SVG 20010904//EN"
 "http://www.w3.org/TR/2001/REC-SVG-20010904/DTD/svg10.dtd">
<svg version="1.0" xmlns="http://www.w3.org/2000/svg"
 width="100.000000pt" height="103.000000pt" viewBox="0 0 100.000000 103.000000"
 preserveAspectRatio="xMidYMid meet">

<g transform="translate(0.000000,103.000000) scale(0.100000,-0.100000)"
fill="#000000" stroke="none">
<path d="M875 1015 c-22 -8 -55 -31 -73 -52 -73 -85 -185 -237 -286 -388 -59
-88 -113 -160 -119 -160 -7 0 -21 24 -33 53 -30 74 -41 84 -85 72 -43 -12 -79
-44 -79 -70 0 -35 59 -207 81 -234 16 -21 29 -26 64 -26 24 0 51 3 59 6 9 3
64 77 122 163 126 184 271 380 389 523 47 57 84 107 82 113 -5 16 -78 16 -122
0z"/>
<path d="M338 947 c-166 -57 -287 -190 -324 -355 -64 -287 143 -564 439 -588
256 -21 487 171 521 433 13 98 -30 256 -88 328 -16 20 -16 20 -36 -3 l-19 -23
29 -52 c17 -31 34 -82 42 -125 32 -188 -65 -372 -239 -455 -63 -30 -76 -32
-173 -32 -97 0 -110 2 -171 31 -165 78 -256 227 -246 399 6 113 35 181 109
261 70 74 151 118 245 133 70 11 178 -1 223 -24 27 -14 29 -13 44 11 9 13 14
29 11 34 -3 5 -35 19 -71 30 -92 28 -208 27 -296 -3z"/>
</g>
</svg>
