<?xml version="1.0" standalone="no"?>
<!DOCTYPE svg PUBLIC "-//W3C//DTD SVG 20010904//EN"
 "http://www.w3.org/TR/2001/REC-SVG-20010904/DTD/svg10.dtd">
<svg version="1.0" xmlns="http://www.w3.org/2000/svg"
 width="100.000000pt" height="100.000000pt" viewBox="0 0 100.000000 100.000000"
 preserveAspectRatio="xMidYMid meet">

<g transform="translate(0.000000,100.000000) scale(0.100000,-0.100000)"
fill="#000000" stroke="none">
<path d="M377 985 c-127 -35 -260 -139 -319 -251 -77 -143 -77 -325 0 -468 34
-65 143 -174 208 -208 196 -105 437 -66 592 96 196 203 190 515 -12 704 -72
67 -139 105 -221 127 -71 18 -182 18 -248 0z m261 -53 c310 -97 418 -489 202
-734 -149 -170 -419 -200 -604 -67 -252 181 -249 572 7 742 114 76 266 98 395
59z"/>
<path d="M210 728 c-35 -13 -40 -42 -40 -237 l0 -190 26 -20 c26 -20 38 -21
313 -21 243 0 290 2 309 16 22 15 22 20 22 223 0 168 -3 211 -14 220 -16 13
-582 21 -616 9z m550 -43 c0 -7 -242 -225 -251 -225 -9 0 -72 55 -188 162
l-73 68 256 0 c141 0 256 -2 256 -5z m-430 -135 l55 -49 -45 -46 c-25 -26 -62
-60 -82 -77 l-38 -30 0 147 0 146 28 -20 c15 -12 52 -43 82 -71z m470 -55 c0
-80 -3 -145 -6 -145 -3 0 -41 33 -85 73 l-80 72 78 72 c43 40 81 73 86 73 4 0
7 -65 7 -145z m-353 -55 c34 -26 86 -26 123 2 l29 21 80 -73 c45 -39 81 -74
81 -76 0 -2 -115 -4 -255 -4 l-255 0 81 75 c45 41 84 75 86 75 3 0 16 -9 30
-20z"/>
</g>
</svg>
